<svg version="1.1" xmlns="http://www.w3.org/2000/svg" xmlns:xlink="http://www.w3.org/1999/xlink"
	 viewBox="0 0 256 256">
<style type="text/css">
	.st0{fill:none;stroke:#000000;stroke-miterlimit:10;}
	.st1{fill:#00FF18;}
</style>
<g>
	<path class="st1" d="M130.3,22.1c13.1,0,24.4,4.8,33.8,14.3c9.4,9.6,14.1,21,14.1,34.3c0,13.6-4.7,25.1-14.2,34.5
		c-9.5,9.5-21,14.2-34.5,14.2c-13.5,0-25-4.8-34.5-14.3s-14.3-21-14.3-34.5c0-13.6,4.8-25.1,14.4-34.5
		C104.7,26.8,116.4,22.1,130.3,22.1z M129.5,49.4c-5.7,0-10.5,2.1-14.5,6.3c-4,4.2-6,9.2-6,15.1c0,5.9,2,10.9,6,15.1
		c4,4.2,8.8,6.3,14.4,6.3c5.7,0,10.5-2.1,14.5-6.2c4-4.1,5.9-9.2,5.9-15.1c0-5.9-2-11-5.9-15.1C140,51.5,135.2,49.4,129.5,49.4z"/>
</g>
<path d="M164.2,154.8c-9.5-9.6-20.8-14.4-34-14.4c-14,0-25.8,4.7-35.4,14.2c-9.4,9.2-14.2,20.4-14.4,33.6h0v42.5h28.5v-42.5h0
	c0.2-5.5,2.2-10.2,6-14.1c4-4.2,8.9-6.3,14.6-6.3c5.7,0,10.6,2.1,14.6,6.3c3.7,3.9,5.7,8.6,5.9,14.1h0v42.5h28.5v-42.5h0
	C178.2,175.3,173.5,164.2,164.2,154.8z"/>
</svg>
