<svg xmlns="http://www.w3.org/2000/svg" viewBox="-50 -45 880 300"><defs><style>.cls-1{font-size:120px;font-family:CenturyGothic, Century Gothic;letter-spacing:0.06em;}.cls-1,.cls-4{fill:#fff;}.cls-2{font-size:45px;letter-spacing:0.06em;}.cls-3{fill:#00ff18;}</style></defs><title>white_logo</title><text class="cls-1" transform="translate(-5.81 129.19)"><tspan xml:space="preserve">c   </tspan><tspan class="cls-2" x="203.7" y="0"> </tspan><tspan x="218.64" y="0">tacted</tspan></text><path class="cls-3" d="M142.7,1.33a40.06,40.06,0,0,1,29.61,12.56A41.36,41.36,0,0,1,184.66,44a41.13,41.13,0,0,1-12.44,30.24,42.82,42.82,0,0,1-60.41-.06A41.09,41.09,0,0,1,99.31,44,40.79,40.79,0,0,1,111.9,13.71Q124.49,1.34,142.7,1.33ZM142,25.26a16.89,16.89,0,0,0-12.68,5.48A18.42,18.42,0,0,0,124.07,44a18.39,18.39,0,0,0,5.27,13.22,17.45,17.45,0,0,0,25.35,0A18.45,18.45,0,0,0,159.9,44a18.41,18.41,0,0,0-5.21-13.24A16.9,16.9,0,0,0,142,25.26Z"/><path class="cls-4" d="M172.44,117.55a40.33,40.33,0,0,0-29.79-12.63q-18.33,0-31,12.45A40.86,40.86,0,0,0,99,146.83h0v37.22h24.91V146.83h0a18.41,18.41,0,0,1,5.23-12.35,17.6,17.6,0,0,1,25.53,0,18.43,18.43,0,0,1,5.2,12.38h0v37.22h24.91V146.83h0A41.45,41.45,0,0,0,172.44,117.55Z"/></svg>